<mxfile host="app.diagrams.net" agent="Mozilla/5.0 (Windows NT 10.0; Win64; x64) AppleWebKit/537.36 (KHTML, like Gecko) Chrome/136.0.0.0 Safari/537.36" version="27.0.6">
  <diagram id="DysrAyi57Y68Mfo42Ta8" name="Page-1">
    <mxGraphModel dx="1213" dy="730" grid="1" gridSize="10" guides="1" tooltips="1" connect="1" arrows="1" fold="1" page="1" pageScale="1" pageWidth="827" pageHeight="1169" math="0" shadow="0">
      <root>
        <mxCell id="0" />
        <mxCell id="1" parent="0" />
        <mxCell id="M1_pG7FYX4y0yh-SVgyg-1" value="main" style="shape=folder;fontStyle=1;spacingTop=10;tabWidth=40;tabHeight=14;tabPosition=left;html=1;whiteSpace=wrap;" parent="1" vertex="1">
          <mxGeometry x="24" y="390" width="241" height="220" as="geometry" />
        </mxCell>
        <mxCell id="y-LgqZlxKOnIDZZY2kYY-1" value="&amp;lt;&amp;lt;import&amp;gt;&amp;gt;" style="endArrow=open;endSize=12;dashed=1;html=1;rounded=0;exitX=0;exitY=0;exitDx=241;exitDy=65.5;exitPerimeter=0;entryX=-0.004;entryY=0.36;entryDx=0;entryDy=0;entryPerimeter=0;" edge="1" parent="1" source="M1_pG7FYX4y0yh-SVgyg-1" target="M1_pG7FYX4y0yh-SVgyg-3">
          <mxGeometry width="160" relative="1" as="geometry">
            <mxPoint x="398" y="380" as="sourcePoint" />
            <mxPoint x="405.25" y="509.55999999999995" as="targetPoint" />
          </mxGeometry>
        </mxCell>
        <mxCell id="y-LgqZlxKOnIDZZY2kYY-2" value="&amp;lt;&amp;lt;import&amp;gt;&amp;gt;" style="endArrow=open;endSize=12;dashed=1;html=1;rounded=0;exitX=0;exitY=0;exitDx=0;exitDy=198.5;exitPerimeter=0;entryX=0;entryY=0;entryDx=241;entryDy=168.5;entryPerimeter=0;" edge="1" parent="1" source="M1_pG7FYX4y0yh-SVgyg-3" target="M1_pG7FYX4y0yh-SVgyg-1">
          <mxGeometry width="160" relative="1" as="geometry">
            <mxPoint x="375.75" y="650.6400000000001" as="sourcePoint" />
            <mxPoint x="374" y="519" as="targetPoint" />
          </mxGeometry>
        </mxCell>
        <mxCell id="y-LgqZlxKOnIDZZY2kYY-4" value="" style="group" vertex="1" connectable="0" parent="1">
          <mxGeometry x="554" y="360" width="250" height="260" as="geometry" />
        </mxCell>
        <mxCell id="M1_pG7FYX4y0yh-SVgyg-3" value="Whiteboard" style="shape=folder;fontStyle=1;spacingTop=10;tabWidth=40;tabHeight=14;tabPosition=left;html=1;whiteSpace=wrap;" parent="y-LgqZlxKOnIDZZY2kYY-4" vertex="1">
          <mxGeometry width="250" height="260" as="geometry" />
        </mxCell>
        <mxCell id="y-LgqZlxKOnIDZZY2kYY-3" value="Utility" style="shape=folder;fontStyle=1;spacingTop=10;tabWidth=40;tabHeight=14;tabPosition=left;html=1;whiteSpace=wrap;" vertex="1" parent="y-LgqZlxKOnIDZZY2kYY-4">
          <mxGeometry x="26" y="165" width="70" height="50" as="geometry" />
        </mxCell>
      </root>
    </mxGraphModel>
  </diagram>
</mxfile>
